<?xml version="1.0" encoding="UTF-8"?>
<svg height="128px" viewBox="0 0 128 128" width="128px" xmlns="http://www.w3.org/2000/svg" xmlns:xlink="http://www.w3.org/1999/xlink">
    <filter id="a" height="100%" width="100%" x="0%" y="0%">
        <feColorMatrix color-interpolation-filters="sRGB" values="0 0 0 0 1 0 0 0 0 1 0 0 0 0 1 0 0 0 1 0"/>
    </filter>
    <linearGradient id="b" gradientTransform="matrix(0.232143 0 0 0.328947 -8.5672 263.826857)" gradientUnits="userSpaceOnUse" x1="88.595886" x2="536.595886" y1="-449.394012" y2="-449.394012">
        <stop offset="0" stop-color="#244182"/>
        <stop offset="0.0384615" stop-color="#72a2cf"/>
        <stop offset="0.0768555" stop-color="#4b78d3"/>
        <stop offset="0.923077" stop-color="#4b78d3"/>
        <stop offset="0.961538" stop-color="#72a2cf"/>
        <stop offset="1" stop-color="#244182"/>
    </linearGradient>
    <mask id="c">
        <g filter="url(#a)">
            <rect fill-opacity="0.5" height="153.6" width="153.6" x="-12.8" y="-12.8"/>
        </g>
    </mask>
    <clipPath id="d">
        <rect height="152" width="192"/>
    </clipPath>
    <path d="m 20 16 h 88 c 4.417969 0 8 3.582031 8 8 v 84 c 0 4.417969 -3.582031 8 -8 8 h -88 c -4.417969 0 -8 -3.582031 -8 -8 v -84 c 0 -4.417969 3.582031 -8 8 -8 z m 0 0" fill="url(#b)"/>
    <path d="m 20 12 h 88 c 4.417969 0 8 3.582031 8 8 v 84 c 0 4.417969 -3.582031 8 -8 8 h -88 c -4.417969 0 -8 -3.582031 -8 -8 v -84 c 0 -4.417969 3.582031 -8 8 -8 z m 0 0" fill="#1a5fb4"/>
    <g mask="url(#c)">
        <g clip-path="url(#d)" transform="matrix(1 0 0 1 -8 -16)">
            <path d="m 59.910156 107.128906 c 0 4.144532 -3.359375 7.5 -7.5 7.5 s -7.5 -3.355468 -7.5 -7.5 c 0 -4.140625 3.359375 -7.5 7.5 -7.5 s 7.5 3.359375 7.5 7.5 z m 0 0"/>
            <path d="m 78.683594 107.128906 c 0 4.144532 -3.355469 7.5 -7.5 7.5 c -4.140625 0 -7.5 -3.355468 -7.5 -7.5 c 0 -4.140625 3.359375 -7.5 7.5 -7.5 c 4.144531 0 7.5 3.359375 7.5 7.5 z m 0 0"/>
            <path d="m 45.804688 93.820312 c -0.199219 0 -0.363282 -0.164062 -0.363282 -0.363281 v -19.273437 c 0 -0.199219 0.164063 -0.363282 0.363282 -0.363282 h 0.195312 c 1.890625 0.003907 3.425781 1.535157 3.425781 3.425782 v 16.210937 c 0 0.199219 -0.160156 0.363281 -0.363281 0.363281 z m 0 0"/>
            <path d="m 60.777344 93.816406 c -3.554688 0 -7.460938 -1.84375 -7.625 -5.90625 c -0.003906 -0.101562 0.035156 -0.195312 0.101562 -0.265625 c 0.070313 -0.074219 0.164063 -0.113281 0.265625 -0.113281 l 3.125 -0.003906 c 0.1875 0.003906 0.339844 0.144531 0.355469 0.332031 c 0.136719 1.40625 1.683594 2.34375 3.851562 2.34375 c 2.191407 -0.003906 3.550782 -0.925781 3.550782 -2.40625 c -0.015625 -1.773437 -2 -2.203125 -4.296875 -2.699219 c -3.121094 -0.675781 -6.65625 -1.441406 -6.660157 -5.753906 c -0.003906 -3.195312 3.023438 -5.519531 7.199219 -5.523438 c 4.191407 -0.003906 6.988281 2.195313 7.125 5.597657 c 0.003907 0.101562 -0.035156 0.195312 -0.101562 0.269531 c -0.070313 0.070312 -0.164063 0.109375 -0.261719 0.113281 h -3.128906 c -0.1875 0 -0.339844 -0.144531 -0.355469 -0.328125 c -0.136719 -1.226562 -1.515625 -2.078125 -3.351563 -2.078125 c -1.84375 0 -3.132812 0.914063 -3.128906 2.214844 c 0 1.507813 1.867188 1.910156 4.023438 2.378906 c 3.054687 0.664063 6.859375 1.492188 6.929687 5.878907 c 0.015625 1.566406 -0.480469 2.871093 -1.472656 3.878906 c -1.320313 1.332031 -3.5 2.066406 -6.144531 2.070312 z m 0 0"/>
            <path d="m 80.261719 93.820312 c -5.398438 0 -9.621094 -4.375 -9.621094 -9.960937 c 0 -5.535156 4.265625 -10.039063 9.507813 -10.039063 c 4.535156 0 9.464843 3.382813 9.660156 9.652344 c 0 0.511719 -0.027344 1.023438 -0.085938 1.53125 c -0.023437 0.179688 -0.175781 0.316406 -0.359375 0.316406 h -14.445312 c -0.035157 0 -0.066407 0.015626 -0.089844 0.042969 c -0.023437 0.03125 -0.035156 0.066407 -0.03125 0.105469 c 0.410156 2.671875 2.5625 4.472656 5.351563 4.472656 c 1.710937 0 3.191406 -0.625 4.28125 -1.804687 c 0.0625 -0.070313 0.152343 -0.113281 0.25 -0.113281 l 3.832031 0.035156 c 0.128906 0 0.246093 0.070312 0.308593 0.183594 c 0.070313 0.109374 0.074219 0.25 0.011719 0.363281 c -1.722656 3.21875 -5.003906 5.214843 -8.570312 5.214843 z m 0 -16.117187 c -2.554688 0 -4.628907 1.585937 -5.414063 4.148437 c -0.011718 0.039063 -0.003906 0.082032 0.019532 0.113282 c 0.023437 0.03125 0.058593 0.050781 0.097656 0.050781 h 10.515625 c 0.039062 0 0.074219 -0.019531 0.097656 -0.050781 s 0.03125 -0.074219 0.019531 -0.113282 c -0.773437 -2.484374 -2.917968 -4.148437 -5.335937 -4.148437 z m 0 0"/>
            <path d="m 92.839844 93.820312 c -0.335938 0 -0.609375 -0.273437 -0.609375 -0.609374 v -8.355469 c 0 -7.976563 4.957031 -10.929688 9.601562 -11.035157 c 0.203125 0 0.371094 0.164063 0.371094 0.367188 v 3.148438 c 0 0.195312 -0.160156 0.355468 -0.355469 0.355468 c -3.488281 0 -5.597656 2.679688 -5.632812 7.164063 v 8.355469 c -0.003906 0.335937 -0.273438 0.609374 -0.613282 0.609374 z m 0 0"/>
            <path d="m 112.070312 93.820312 c -0.152343 0 -0.289062 -0.09375 -0.347656 -0.234374 l -7.488281 -19.25 c -0.046875 -0.117188 -0.035156 -0.246094 0.035156 -0.351563 c 0.070313 -0.101563 0.1875 -0.164063 0.3125 -0.164063 h 3.382813 c 0.15625 0 0.292968 0.09375 0.351562 0.238282 l 5.332032 14.152344 c 0.019531 0.046874 0.070312 0.082031 0.125 0.082031 c 0.050781 0 0.101562 -0.035157 0.121093 -0.082031 l 5.332031 -14.152344 c 0.054688 -0.144532 0.195313 -0.238282 0.347657 -0.238282 h 3.386719 c 0.125 0 0.242187 0.0625 0.308593 0.164063 c 0.070313 0.105469 0.085938 0.238281 0.039063 0.351563 l -7.488282 19.25 c -0.058593 0.140624 -0.195312 0.234374 -0.351562 0.234374 z m 0 0"/>
            <path d="m 123.984375 99.621094 h -32.558594 c -2.421875 0 -4.75 0.804687 -6.488281 2.242187 l -0.019531 0.015625 c -1.671875 1.378906 -2.613281 3.277344 -2.617188 5.261719 c -0.007812 1.984375 0.929688 3.886719 2.59375 5.269531 c 1.8125 1.460938 4.222657 2.261719 6.714844 2.226563 h 32.375 z m 0 0"/>
        </g>
    </g>
    <g fill="#ffffff">
        <path d="m 51.933594 89.308594 c 0 4.140625 -3.355469 7.5 -7.5 7.5 c -4.140625 0 -7.5 -3.359375 -7.5 -7.5 s 3.359375 -7.5 7.5 -7.5 c 4.144531 0 7.5 3.359375 7.5 7.5 z m 0 0"/>
        <path d="m 70.710938 89.308594 c 0 4.140625 -3.359376 7.5 -7.5 7.5 c -4.144532 0 -7.5 -3.359375 -7.5 -7.5 s 3.355468 -7.5 7.5 -7.5 c 4.140624 0 7.5 3.359375 7.5 7.5 z m 0 0"/>
        <path d="m 84.375 81.808594 h 31.636719 v 15 h -32.730469 c -4.894531 0 -8.867188 -3.359375 -8.867188 -7.5 c 0.304688 -4.398438 4.761719 -7.753906 9.960938 -7.5 z m 0 0"/>
        <path d="m 37.832031 76 c -0.203125 0 -0.363281 -0.164062 -0.363281 -0.363281 v -19.273438 c 0 -0.199219 0.160156 -0.363281 0.363281 -0.363281 h 0.195313 c 1.890625 0 3.421875 1.535156 3.425781 3.425781 v 16.210938 c 0 0.199219 -0.164063 0.363281 -0.363281 0.363281 z m 0 0"/>
        <path d="m 52.800781 75.996094 c -3.554687 0 -7.457031 -1.84375 -7.625 -5.90625 c 0 -0.101563 0.035157 -0.195313 0.105469 -0.265625 c 0.066406 -0.074219 0.164062 -0.113281 0.261719 -0.113281 l 3.128906 -0.003907 c 0.183594 0.003907 0.335937 0.144531 0.351563 0.332031 c 0.136718 1.40625 1.6875 2.34375 3.851562 2.34375 c 2.191406 -0.003906 3.550781 -0.925781 3.550781 -2.40625 c -0.015625 -1.773437 -1.996093 -2.203124 -4.296875 -2.699218 c -3.121094 -0.675782 -6.65625 -1.441406 -6.660156 -5.753906 c 0 -3.195313 3.027344 -5.519532 7.199219 -5.523438 c 4.195312 -0.003906 6.992187 2.195312 7.128906 5.597656 c 0 0.101563 -0.035156 0.195313 -0.105469 0.269532 c -0.066406 0.070312 -0.164062 0.109374 -0.261718 0.113281 h -3.128907 c -0.183593 0 -0.335937 -0.144531 -0.351562 -0.328125 c -0.136719 -1.226563 -1.515625 -2.082032 -3.355469 -2.078125 c -1.84375 0 -3.128906 0.914062 -3.128906 2.214843 c 0 1.507813 1.867187 1.910157 4.027344 2.378907 c 3.054687 0.664062 6.855468 1.488281 6.925781 5.878906 c 0.019531 1.566406 -0.476563 2.871094 -1.472657 3.875 c -1.316406 1.335937 -3.5 2.070313 -6.144531 2.074219 z m 0 0"/>
        <path d="m 72.285156 76 c -5.394531 0 -9.621094 -4.375 -9.621094 -9.960938 c 0 -5.535156 4.265626 -10.039062 9.511719 -10.039062 c 4.535157 0 9.460938 3.382812 9.65625 9.652344 c 0.003907 0.511718 -0.023437 1.023437 -0.082031 1.53125 c -0.023438 0.179687 -0.179688 0.316406 -0.359375 0.316406 h -14.445313 c -0.035156 0 -0.070312 0.015625 -0.089843 0.042969 c -0.027344 0.027343 -0.039063 0.066406 -0.03125 0.105469 c 0.410156 2.671874 2.558593 4.46875 5.351562 4.46875 c 1.707031 0 3.1875 -0.621094 4.28125 -1.800782 c 0.0625 -0.070312 0.152344 -0.113281 0.246094 -0.113281 l 3.835937 0.035156 c 0.125 0 0.242188 0.070313 0.308594 0.179688 c 0.066406 0.113281 0.070313 0.253906 0.007813 0.367187 c -1.71875 3.214844 -5.003907 5.214844 -8.570313 5.214844 z m 0 -16.121094 c -2.554687 0 -4.625 1.589844 -5.410156 4.152344 c -0.011719 0.039062 -0.003906 0.078125 0.019531 0.113281 c 0.019531 0.03125 0.058594 0.050781 0.097657 0.050781 h 10.511718 c 0.039063 0 0.078125 -0.019531 0.097656 -0.050781 c 0.023438 -0.035156 0.03125 -0.074219 0.019532 -0.113281 c -0.773438 -2.484375 -2.914063 -4.152344 -5.335938 -4.152344 z m 0 0"/>
        <path d="m 84.863281 76 c -0.335937 0 -0.609375 -0.273438 -0.609375 -0.609375 v -8.355469 c 0 -7.976562 4.957032 -10.929687 9.601563 -11.035156 c 0.203125 0 0.371093 0.164062 0.375 0.367188 v 3.148437 c -0.003907 0.195313 -0.160157 0.355469 -0.359375 0.355469 c -3.488282 0 -5.59375 2.679687 -5.632813 7.164062 v 8.355469 c 0 0.335937 -0.273437 0.609375 -0.609375 0.609375 z m 0 0"/>
        <path d="m 104.097656 76 c -0.15625 0 -0.292968 -0.09375 -0.351562 -0.234375 l -7.488282 -19.25 c -0.046874 -0.117187 -0.03125 -0.246094 0.039063 -0.351563 c 0.070313 -0.101562 0.183594 -0.164062 0.308594 -0.164062 h 3.386719 c 0.152343 0 0.292968 0.09375 0.347656 0.238281 l 5.335937 14.148438 c 0.019531 0.050781 0.066407 0.085937 0.121094 0.085937 s 0.101563 -0.035156 0.121094 -0.085937 l 5.332031 -14.148438 c 0.058594 -0.144531 0.195312 -0.238281 0.351562 -0.238281 h 3.382813 c 0.125 0 0.242187 0.0625 0.3125 0.164062 c 0.070313 0.105469 0.082031 0.238282 0.035156 0.351563 l -7.488281 19.25 c -0.058594 0.140625 -0.195312 0.234375 -0.347656 0.234375 z m 0 0"/>
    </g>
</svg>
